<?xml version="1.0" standalone="no"?>
<!DOCTYPE svg PUBLIC "-//W3C//DTD SVG 20010904//EN"
 "http://www.w3.org/TR/2001/REC-SVG-20010904/DTD/svg10.dtd">
<svg version="1.0" xmlns="http://www.w3.org/2000/svg"
 width="1500.000000pt" height="1500.000000pt" viewBox="0 0 1500.000000 1500.000000"
 preserveAspectRatio="xMidYMid meet">
<metadata>
Created by potrace 1.14, written by Peter Selinger 2001-2017
</metadata>
<g transform="translate(0.000000,1500.000000) scale(0.100000,-0.100000)"
fill="#000000" stroke="none">
<path d="M2025 9963 c-302 -25 -463 -50 -600 -95 -88 -28 -155 -68 -155 -91 0
-7 20 -44 44 -84 46 -76 65 -149 85 -323 35 -294 48 -957 32 -1605 -18 -741
-38 -1031 -81 -1180 -18 -64 -19 -71 -4 -93 l16 -25 137 6 c211 9 359 54 485
145 76 56 79 71 61 280 -61 705 -70 1619 -24 2462 12 228 10 224 132 262 99
31 342 33 427 4 137 -47 208 -107 262 -221 51 -110 73 -311 47 -423 -17 -70
-101 -242 -140 -286 -77 -89 -209 -149 -354 -162 -70 -6 -78 -9 -107 -42 -66
-76 -105 -216 -76 -272 12 -22 22 -26 92 -32 221 -20 340 -121 398 -336 18
-69 21 -121 28 -477 8 -411 16 -512 51 -650 33 -130 81 -195 174 -236 99 -44
282 -35 535 26 105 26 170 53 208 88 40 37 28 59 -65 121 -71 48 -160 176
-199 288 -42 118 -54 196 -65 418 -11 239 -26 349 -63 466 -56 175 -169 290
-369 376 -147 64 -147 67 -1 103 173 43 365 152 465 264 57 64 121 182 143
266 25 92 31 254 13 355 -27 157 -90 280 -201 392 -162 165 -402 273 -681 307
-80 10 -547 13 -650 4z"/>
<path d="M7045 8785 c-79 -17 -127 -38 -186 -80 -27 -19 -53 -35 -59 -35 -5 0
-43 11 -85 25 -158 53 -307 54 -473 4 -76 -24 -204 -85 -271 -132 -199 -136
-374 -453 -439 -797 -48 -249 -51 -372 -17 -645 17 -140 46 -231 112 -356 59
-113 123 -181 206 -220 182 -85 463 -51 568 68 95 109 144 374 77 417 -13 8
-31 6 -73 -8 -76 -26 -145 -23 -211 9 -70 34 -107 86 -146 205 -28 86 -31 111
-36 255 -5 181 9 302 58 499 36 148 82 244 148 317 93 102 236 154 353 130 31
-7 64 -20 72 -29 48 -53 53 -1406 6 -1972 -14 -181 -56 -457 -89 -595 -82
-343 -218 -563 -411 -666 -60 -32 -87 -67 -73 -92 27 -47 47 -57 118 -57 281
0 578 134 733 329 63 81 158 279 187 391 47 181 48 206 41 1175 -7 960 -3
1166 35 1487 11 91 28 206 39 255 18 78 18 90 5 111 -12 19 -23 22 -72 21 -31
0 -84 -6 -117 -14z"/>
<path d="M11015 8740 c-40 -16 -48 -35 -36 -92 6 -29 18 -123 27 -208 14 -130
16 -231 11 -630 -6 -568 -21 -804 -74 -1188 -16 -115 -16 -124 0 -139 36 -36
236 -25 354 19 74 27 170 94 204 141 34 47 36 80 13 207 -11 65 -16 197 -20
560 -6 499 3 728 31 818 22 71 88 149 155 185 51 27 61 29 136 24 95 -5 128
-20 183 -83 75 -85 74 -72 68 -787 -5 -634 -9 -714 -48 -981 -13 -88 -13 -88
10 -107 62 -50 343 9 464 97 29 21 56 52 69 79 22 44 22 48 9 208 -40 517 -35
1212 10 1379 13 52 80 132 136 165 44 26 56 28 153 28 116 0 158 -14 211 -72
119 -127 118 -336 -1 -866 -75 -332 -100 -586 -69 -712 41 -169 146 -273 324
-320 81 -22 280 -31 327 -16 64 21 66 31 20 129 -23 48 -54 132 -68 187 -39
145 -44 430 -14 785 30 360 37 654 17 747 -22 101 -62 177 -136 256 -114 120
-269 177 -487 177 -195 0 -352 -53 -484 -163 l-65 -54 -50 52 c-55 57 -157
112 -260 140 -33 9 -114 19 -180 22 -194 9 -323 -25 -464 -121 -29 -20 -57
-36 -62 -36 -5 0 -18 18 -28 39 -27 53 -90 105 -152 124 -54 18 -198 22 -234
7z"/>
<path d="M7521 8713 c-24 -19 -24 -21 -13 -94 49 -307 53 -1199 7 -1657 -8
-81 -25 -214 -37 -296 l-22 -149 22 -18 c47 -38 208 -33 333 10 122 42 193 93
224 161 17 38 18 51 7 170 -19 202 -34 706 -27 920 11 360 33 472 110 558 56
63 112 86 189 80 95 -8 155 -75 164 -184 3 -36 -5 -88 -29 -180 -68 -267 -30
-381 145 -436 78 -24 240 -27 283 -4 54 27 56 35 48 160 -4 66 -2 192 5 298
14 214 6 293 -39 393 -74 164 -254 260 -486 260 -156 0 -257 -33 -379 -125
-29 -22 -57 -40 -63 -40 -5 0 -15 11 -21 24 -22 49 -82 103 -144 131 -50 23
-82 29 -158 33 -84 4 -98 2 -119 -15z"/>
<path d="M4535 8713 c-105 -15 -251 -72 -340 -133 -192 -132 -362 -438 -421
-757 -24 -133 -29 -384 -10 -528 60 -456 256 -735 571 -811 94 -23 293 -23
398 0 175 38 315 111 400 207 59 66 132 213 146 293 29 161 -5 301 -68 281
-11 -3 -36 -35 -56 -70 -105 -189 -280 -286 -489 -272 -178 12 -262 75 -337
255 -17 42 -32 96 -33 121 l-1 46 115 17 c392 58 663 197 804 411 182 278 168
575 -37 785 -64 65 -180 124 -289 146 -72 15 -274 20 -353 9z m226 -276 c62
-33 91 -93 97 -201 5 -102 -13 -182 -70 -296 -57 -115 -134 -193 -248 -249
-84 -41 -232 -80 -263 -68 -36 14 -30 272 9 436 22 90 93 236 143 293 71 80
126 106 227 107 46 1 72 -5 105 -22z"/>
<path d="M9630 8691 c-253 -56 -386 -138 -458 -283 -59 -121 -63 -200 -15
-290 27 -49 71 -86 136 -113 112 -46 329 -16 359 51 8 17 6 39 -7 86 -13 51
-15 72 -6 103 34 127 162 205 309 192 169 -16 233 -111 219 -326 -5 -69 -11
-99 -24 -114 -35 -39 -169 -86 -368 -127 -259 -54 -470 -162 -627 -320 -119
-120 -178 -259 -194 -456 -13 -153 46 -338 138 -438 54 -58 143 -110 233 -139
101 -31 264 -31 356 1 73 25 169 79 210 118 48 46 81 121 87 193 5 80 -9 139
-43 171 l-25 23 -71 -36 c-139 -72 -251 -42 -314 83 -10 19 -20 64 -23 101
-12 168 81 299 283 399 102 50 190 72 290 74 l80 1 -4 -486 c-3 -351 -1 -495
8 -520 15 -46 53 -82 116 -111 46 -21 63 -23 230 -23 149 0 188 3 227 18 25
10 49 25 52 33 6 16 -11 53 -44 94 -32 39 -68 161 -87 288 -15 101 -17 205
-18 762 0 712 3 677 -64 774 -69 100 -158 153 -331 199 -106 28 -130 30 -320
33 -172 3 -219 1 -290 -15z"/>
</g>
</svg>
